HIERARCHY
ROOT Hips
{
	OFFSET 0.000000 0.000000 0.000000
	CHANNELS 6 Xposition Yposition Zposition Xrotation Yrotation Zrotation
	JOINT LeftUpLeg_virtual
	{
		OFFSET 0.000000 0.000000 0.000000
		CHANNELS 3 Xrotation Yrotation Zrotation
		JOINT LeftUpLeg
		{
			OFFSET 15.427100 -6.655098 0.678600
			CHANNELS 3 Xrotation Yrotation Zrotation
			JOINT LeftLeg
			{
				OFFSET 4.081073 -39.591068 13.024000
				CHANNELS 3 Xrotation Yrotation Zrotation
				JOINT LeftFoot
				{
					OFFSET -4.081074 -37.707932 -15.979700
					CHANNELS 3 Xrotation Yrotation Zrotation
					JOINT LeftToeBase
					{
						OFFSET 5.346399 -15.068900 20.645000
						CHANNELS 3 Xrotation Yrotation Zrotation
						JOINT LeftToe_End
						{
							OFFSET 2.754700 0.931300 11.300900
							CHANNELS 3 Xrotation Yrotation Zrotation
							End Site
							{
								OFFSET 0 0 0
							}
						}
					}
				}
			}
		}
	}
	JOINT RightUpLeg_virtual
	{
		OFFSET 0.000000 0.000000 0.000000
		CHANNELS 3 Xrotation Yrotation Zrotation
		JOINT RightUpLeg
		{
			OFFSET -15.569500 -6.655098 0.678600
			CHANNELS 3 Xrotation Yrotation Zrotation
			JOINT RightLeg
			{
				OFFSET -4.081825 -39.591045 13.023800
				CHANNELS 3 Xrotation Yrotation Zrotation
				JOINT RightFoot
				{
					OFFSET 4.081824 -37.707954 -15.979600
					CHANNELS 3 Xrotation Yrotation Zrotation
					JOINT RightToeBase
					{
						OFFSET -5.346400 -15.068900 20.645000
						CHANNELS 3 Xrotation Yrotation Zrotation
						JOINT RightToe_End
						{
							OFFSET -2.754700 0.931300 11.300900
							CHANNELS 3 Xrotation Yrotation Zrotation
							End Site
							{
								OFFSET 0 0 0
							}
						}
					}
				}
			}
		}
	}
	JOINT Spine_virtual
	{
		OFFSET 0.000000 0.000000 0.000000
		CHANNELS 3 Xrotation Yrotation Zrotation
		JOINT Spine
		{
			OFFSET -0.279200 12.230698 -2.892100
			CHANNELS 3 Xrotation Yrotation Zrotation
			JOINT Spine1
			{
				OFFSET -0.232667 10.192268 -1.242267
				CHANNELS 3 Xrotation Yrotation Zrotation
				JOINT Spine1_split
				{
					OFFSET -0.232667 10.192268 -1.242267
					CHANNELS 3 Xrotation Yrotation Zrotation
					JOINT Spine2
					{
						OFFSET -0.232667 10.192268 -1.242267
						CHANNELS 3 Xrotation Yrotation Zrotation
						JOINT Neck_virtual
						{
							OFFSET 0.000000 0.000000 0.000000
							CHANNELS 3 Xrotation Yrotation Zrotation
							JOINT Neck
							{
								OFFSET -0.418800 17.814194 8.416900
								CHANNELS 3 Xrotation Yrotation Zrotation
								JOINT Head
								{
									OFFSET 0.000000 7.031097 3.806800
									CHANNELS 3 Xrotation Yrotation Zrotation
									JOINT HeadTop_End
									{
										OFFSET 0.000000 24.646606 12.978600
										CHANNELS 3 Xrotation Yrotation Zrotation
										End Site
										{
											OFFSET 0 0 0
										}
									}
								}
							}
						}
						JOINT LeftShoulder_virtual
						{
							OFFSET 0.000000 0.000000 0.000000
							CHANNELS 3 Xrotation Yrotation Zrotation
							JOINT LeftShoulder
							{
								OFFSET 8.476499 7.247704 -3.868750
								CHANNELS 3 Xrotation Yrotation Zrotation
								JOINT LeftShoulder_split
								{
									OFFSET 8.476499 7.247704 -3.868750
									CHANNELS 3 Xrotation Yrotation Zrotation
									JOINT LeftArm
									{
										OFFSET 9.308998 -2.777710 0.208600
										CHANNELS 3 Xrotation Yrotation Zrotation
										JOINT LeftForeArm
										{
											OFFSET 29.972298 0.000000 0.000000
											CHANNELS 3 Xrotation Yrotation Zrotation
											JOINT LeftHand
											{
												OFFSET 26.026505 0.000000 0.000000
												CHANNELS 3 Xrotation Yrotation Zrotation
												End Site
												{
													OFFSET 0 0 0
												}
											}
										}
									}
								}
							}
						}
						JOINT RightShoulder_virtual
						{
							OFFSET 0.000000 0.000000 0.000000
							CHANNELS 3 Xrotation Yrotation Zrotation
							JOINT RightShoulder
							{
								OFFSET -7.570500 7.247704 -3.868750
								CHANNELS 3 Xrotation Yrotation Zrotation
								JOINT RightShoulder_split
								{
									OFFSET -7.570500 7.247704 -3.868750
									CHANNELS 3 Xrotation Yrotation Zrotation
									JOINT RightArm
									{
										OFFSET -9.308998 -2.777710 0.208500
										CHANNELS 3 Xrotation Yrotation Zrotation
										JOINT RightForeArm
										{
											OFFSET -29.972300 0.000000 0.000000
											CHANNELS 3 Xrotation Yrotation Zrotation
											JOINT RightHand
											{
												OFFSET -26.026505 0.000000 0.000000
												CHANNELS 3 Xrotation Yrotation Zrotation
												End Site
												{
													OFFSET 0 0 0
												}
											}
										}
									}
								}
							}
						}
					}
				}
			}
		}
	}
}
MOTION
Frames: 4
Frame Time: 0.03333333
-105.878387 73.493736 -9.248875 0.000000 0.000000 0.000000 16.924543 -61.990257 16.625826 -52.843019 -16.205239 12.554178 42.794663 -3.136755 -3.873525 10.990738 4.049335 -20.717026 -0.970669 -0.819139 0.664795 0.000000 0.000000 0.000000 16.503098 -61.130548 16.928057 -44.962924 -0.660359 -15.931450 77.124734 10.689005 -5.115098 -9.821434 4.976642 28.172585 -11.625530 2.944637 -16.251221 0.000000 0.000000 0.000000 16.154760 -58.493617 14.126279 15.227215 3.823244 -6.801907 16.349933 3.985836 -5.138898 0.559190 -1.590045 0.998372 0.000000 0.000000 0.000000 16.547429 4.290612 -5.156659 -10.245618 14.678966 7.216051 -12.463111 15.461224 0.125319 0.000000 0.000000 0.000000 17.482064 3.574978 -4.860407 -0.656476 -9.436372 11.382109 -2.544116 -3.480210 -5.027039 -32.651180 17.537831 -21.770413 0.008573 -67.978578 -1.665064 0.000000 0.000000 0.000000 16.006634 3.941957 -4.739852 -1.785281 12.730854 16.844753 2.994986 3.516997 -0.308992 -43.749704 -1.836660 42.623382 -42.500999 71.021263 38.870292 0.000000 0.000000 0.000000 
-109.335136 72.791687 -9.027004 0.000000 0.000000 0.000000 11.975475 -62.632507 11.385533 -48.746384 -18.803350 15.659465 48.112696 -5.151395 -4.585532 6.450149 4.470673 -19.059441 1.421303 -0.697335 -0.125213 0.000000 0.000000 0.000000 11.861038 -62.401291 12.088061 -46.088716 1.163018 -18.220532 76.389423 9.639825 -4.592313 -8.225042 2.900805 24.230642 -4.999035 1.751064 -11.749460 0.000000 0.000000 0.000000 14.448531 -60.746815 11.667339 15.720054 3.552921 -6.801514 15.956249 3.092374 -5.630008 0.751209 -1.415062 0.845675 0.000000 0.000000 0.000000 16.184014 3.198898 -5.713064 -12.882590 16.623823 6.416279 -13.252090 18.262141 0.811455 0.000000 0.000000 0.000000 17.235757 2.610286 -5.421095 -0.849002 -10.196496 10.128396 -3.910195 -4.504158 -6.370526 -35.053624 17.243127 -20.296937 -0.180053 -68.854898 -0.915215 0.000000 0.000000 0.000000 15.716692 2.928098 -5.372668 -2.192197 12.678160 15.336609 3.316005 4.521906 0.296035 -42.640174 -2.799420 44.085442 -41.087262 71.814392 37.393595 0.000000 0.000000 0.000000 
-112.801941 72.963303 -8.789200 0.000000 0.000000 0.000000 7.583080 -62.094971 6.744358 -43.603371 -20.571099 18.092814 49.788179 -6.173350 -4.903701 -0.404374 5.184846 -16.718235 3.683509 -0.569183 -0.925787 0.000000 0.000000 0.000000 7.713280 -62.230591 7.812023 -45.160637 3.787421 -19.929937 71.512019 7.221412 -4.432749 -8.514429 -0.992208 18.803226 2.090814 0.702284 -5.551205 0.000000 0.000000 0.000000 12.044415 -62.270548 8.917392 15.866150 3.252578 -6.464185 15.431405 2.386355 -5.989780 0.861544 -0.928904 0.655077 0.000000 0.000000 0.000000 15.628106 2.382483 -6.150450 -15.061344 18.655495 5.738748 -12.699965 21.312043 1.247244 0.000000 0.000000 0.000000 16.748992 1.889853 -5.812023 -1.361856 -11.263241 7.446758 -4.694696 -4.870809 -7.277682 -35.817167 16.581486 -21.176631 0.511545 -70.840352 0.472856 0.000000 0.000000 0.000000 15.347145 2.164638 -5.791945 -2.504695 12.706314 13.570988 3.693827 5.232543 0.893821 -41.416853 -4.277831 44.534268 -41.118517 73.534834 37.485495 0.000000 0.000000 0.000000 
-115.945740 73.392578 -8.527229 0.000000 0.000000 0.000000 4.638856 -61.297990 3.543905 -38.726295 -21.151626 20.021064 49.035567 -6.970964 -5.264561 -7.265300 4.666865 -14.507330 2.624547 -0.515361 -1.050922 0.000000 0.000000 0.000000 4.246315 -61.546821 4.312840 -42.977032 6.131473 -21.387762 64.912499 4.900379 -5.217608 -9.540229 -4.344195 15.090152 6.630081 0.162278 0.187117 0.000000 0.000000 0.000000 9.485069 -63.020202 6.390164 15.599583 3.016779 -5.944598 14.778467 1.884557 -6.250026 0.687312 -0.799027 0.364764 0.000000 0.000000 0.000000 14.975842 1.868808 -6.436330 -16.551966 20.524669 5.056859 -10.893673 24.181735 1.378032 0.000000 0.000000 0.000000 16.055654 1.443438 -6.061474 -2.185434 -12.466037 3.650024 -4.908317 -4.332253 -7.036341 -34.173578 15.532934 -23.522577 1.764985 -72.717302 2.058990 0.000000 0.000000 0.000000 14.878828 1.671017 -6.006843 -2.680302 12.702118 11.794477 4.098548 5.483962 1.324633 -40.318774 -6.677862 44.147249 -46.579148 76.899037 43.122174 0.000000 0.000000 0.000000 
